# xmcd
#
# Track frame offsets:
#	150
#	19476
#	40725
#	62855
#	85589
#	103108
#	119271
#	136393
#	151907
#	167202
#
# Disc length: 2351 seconds
#
# Revision: 1
# Processed by: cddbd v1.5.2PL0 Copyright (c) Steve Scherf et al.
# Submitted via: EasyCDDAExtractor 15.3.0.1
#
DISCID=80092d0a
DTITLE=RBD - Tour Celestial 2007 - Hecho En España - CD 2
DYEAR=2007
DGENRE=Latin
TTITLE0=Algun Dia
TTITLE1=Medley (Quiza, Este Corazon)
TTITLE2=No Pares
TTITLE3=Tu Amor
TTITLE4=Nuestro Amor
TTITLE5=Aun Hay Algo
TTITLE6=Tras De Mi
TTITLE7=Celestial
TTITLE8=Rebelde
TTITLE9=Cariño Mio Reprise
EXTD=
EXTT0=
EXTT1=
EXTT2=
EXTT3=
EXTT4=
EXTT5=
EXTT6=
EXTT7=
EXTT8=
EXTT9=
PLAYORDER=
